<svg width="661" height="196" viewBox="0 0 661 196" fill="none" xmlns="http://www.w3.org/2000/svg">
<g clip-path="url(#clip0_1_2)">
<path d="M162.86 44.39C157.6 24.39 154.2 11.58 153.86 10.98C153.52 10.38 152.73 9.16 151.93 8.05C150.088 5.52881 147.652 3.50197 144.838 2.14985C142.024 0.797729 138.919 0.162261 135.8 0.299997C134.38 0.299997 129.52 1.53 101.85 8.74C71.2 16.74 69.53 17.16 67.95 18.08C66.2016 18.9615 64.605 20.116 63.22 21.5C62.91 21.88 62.33 22.57 61.88 23.09C61.29 23.76 48.94 44.41 46.88 48.28C46.62 48.82 40.14 59.81 32.55 72.7C24.96 85.59 18.11 97.22 17.38 98.5C16.65 99.78 12.77 106.42 8.74998 113.23C4.72998 120.04 1.45999 125.74 1.48999 125.85C1.38342 126.377 1.20861 126.888 0.969982 127.37C0.639549 128.139 0.43364 128.956 0.359981 129.79C0.345223 130.249 0.281527 130.705 0.169979 131.15C-0.120021 131.85 0.0799751 135.99 0.509975 137.63C1.56771 141.347 3.71299 144.662 6.66998 147.15C8.81998 148.82 86.09 194.15 88.67 195.23C92.2495 196.585 96.1503 196.85 99.88 195.99C103.087 195.006 106 193.244 108.36 190.86C108.81 190.34 109.36 189.72 109.64 189.47C110.13 188.98 109.38 190.3 135.04 146.47C145.86 127.93 155.04 112.3 155.37 111.77C158.61 106.7 169.77 87.08 170.37 85.54C171.138 83.3337 171.494 81.005 171.42 78.67C171.34 76.95 170.96 75.3 162.86 44.39ZM135.77 44.85C134.326 46.0639 132.636 46.9514 130.817 47.4519C128.998 47.9525 127.092 48.0542 125.23 47.75C123.575 47.4944 121.988 46.9113 120.562 46.0349C119.135 45.1585 117.898 44.0064 116.922 42.6459C115.946 41.2854 115.251 39.744 114.878 38.1117C114.505 36.4795 114.462 34.7893 114.75 33.14C115.113 31.3173 115.861 29.5931 116.943 28.0822C118.025 26.5713 119.417 25.3086 121.026 24.3783C122.635 23.448 124.423 22.8716 126.273 22.6873C128.122 22.5031 129.989 22.7154 131.75 23.31C140.63 26.52 142.86 38.6 135.77 44.85Z" fill="#F7931A"/>
<path d="M88.44 100.83C83.83 94.28 76.27 95.69 68 99.75L62.57 90.08L56.46 93.75L61.75 103.16C60.14 104.16 58.52 105.16 56.9 106.16L51.58 96.68L45.47 100.3L50.9 109.97C49.59 110.79 48.3 111.59 47.04 112.35L38.61 117.41L42.14 123.69C42.14 123.69 46.61 120.9 46.58 121.03C49.05 119.55 50.64 120.45 51.58 121.5L57.77 132.5C57.9865 132.371 58.2102 132.254 58.44 132.15L57.79 132.54L66.46 147.98C66.7273 148.583 66.7518 149.265 66.5282 149.886C66.3047 150.506 65.8504 151.016 65.26 151.31C65.37 151.31 60.81 153.97 60.81 153.97L63.55 161.74L71.55 156.96C73.03 156.08 74.5 155.23 75.94 154.38L81.43 164.16L87.54 160.5L82.1 150.82C83.8 149.82 85.43 148.89 87.01 147.94L92.42 157.57L98.53 153.91L93.05 144.14C103.05 137.41 108.8 130.6 104.47 120.77C100.99 112.85 95.47 111.7 88.87 113.85C91.44 109.99 91.94 105.59 88.55 100.8L88.44 100.83ZM91.63 126.88C95.74 134.19 82.28 141.16 78.14 143.64L70.86 130.64C75.01 128.16 87.35 119.22 91.63 126.84V126.88ZM78.52 110.3C82.25 116.95 70.98 122.68 67.52 124.75L60.92 112.99C64.37 110.92 74.62 103.36 78.51 110.3H78.52Z" fill="white"/>
<path d="M278.392 31.9091H256.761C256.608 30.1193 256.199 28.4957 255.534 27.0384C254.895 25.581 254 24.3281 252.849 23.2798C251.724 22.206 250.357 21.3878 248.746 20.8253C247.135 20.2372 245.307 19.9432 243.261 19.9432C239.682 19.9432 236.652 20.8125 234.172 22.5511C231.717 24.2898 229.851 26.7827 228.572 30.0298C227.32 33.277 226.693 37.1761 226.693 41.7273C226.693 46.5341 227.332 50.5611 228.611 53.8082C229.915 57.0298 231.794 59.4588 234.249 61.0952C236.703 62.706 239.656 63.5114 243.108 63.5114C245.077 63.5114 246.841 63.2685 248.401 62.7827C249.96 62.2713 251.315 61.5426 252.466 60.5966C253.616 59.6506 254.55 58.5128 255.266 57.1832C256.007 55.8281 256.506 54.3068 256.761 52.6193L278.392 52.7727C278.136 56.0966 277.203 59.4844 275.592 62.9361C273.982 66.3622 271.693 69.5327 268.727 72.4474C265.787 75.3366 262.143 77.6634 257.797 79.4276C253.45 81.1918 248.401 82.0739 242.648 82.0739C235.438 82.0739 228.969 80.527 223.241 77.4332C217.54 74.3395 213.027 69.7884 209.703 63.7798C206.405 57.7713 204.756 50.4205 204.756 41.7273C204.756 32.983 206.443 25.6193 209.818 19.6364C213.193 13.6278 217.744 9.08948 223.472 6.0213C229.199 2.92755 235.591 1.38068 242.648 1.38068C247.608 1.38068 252.172 2.05823 256.339 3.41335C260.507 4.76846 264.163 6.75 267.308 9.35795C270.453 11.9403 272.984 15.1236 274.902 18.9077C276.82 22.6918 277.983 27.0256 278.392 31.9091ZM288.066 81V2.45454H321.97C327.799 2.45454 332.9 3.51562 337.272 5.63778C341.645 7.75994 345.045 10.8153 347.474 14.804C349.903 18.7926 351.118 23.5739 351.118 29.1477C351.118 34.7727 349.865 39.5156 347.359 43.3764C344.879 47.2372 341.389 50.152 336.889 52.1207C332.414 54.0895 327.186 55.0739 321.203 55.0739H300.953V38.5057H316.907C319.413 38.5057 321.548 38.1989 323.312 37.5852C325.102 36.946 326.47 35.9361 327.416 34.5554C328.387 33.1747 328.873 31.3722 328.873 29.1477C328.873 26.8977 328.387 25.0696 327.416 23.6634C326.47 22.2315 325.102 21.1832 323.312 20.5185C321.548 19.8281 319.413 19.483 316.907 19.483H309.39V81H288.066ZM334.089 44.9489L353.725 81H330.561L311.385 44.9489H334.089ZM353.294 2.45454H377.072L392.413 34.3636H393.027L408.368 2.45454H432.146L403.305 56.3011V81H382.135V56.3011L353.294 2.45454ZM439.098 81V2.45454H473.001C478.831 2.45454 483.931 3.60511 488.304 5.90625C492.676 8.20738 496.076 11.4418 498.505 15.6094C500.934 19.777 502.149 24.6477 502.149 30.2216C502.149 35.8466 500.896 40.7173 498.39 44.8338C495.91 48.9503 492.42 52.1207 487.92 54.3452C483.446 56.5696 478.217 57.6818 472.234 57.6818H451.984V41.1136H467.939C470.444 41.1136 472.579 40.679 474.343 39.8097C476.133 38.9148 477.501 37.6491 478.447 36.0128C479.419 34.3764 479.904 32.446 479.904 30.2216C479.904 27.9716 479.419 26.054 478.447 24.4688C477.501 22.858 476.133 21.6307 474.343 20.7869C472.579 19.9176 470.444 19.483 467.939 19.483H460.422V81H439.098ZM507.825 19.6364V2.45454H576.092V19.6364H552.467V81H531.45V19.6364H507.825ZM656.517 41.7273C656.517 50.4716 654.816 57.848 651.416 63.8565C648.015 69.8395 643.426 74.3778 637.647 77.4716C631.869 80.5398 625.426 82.0739 618.318 82.0739C611.159 82.0739 604.69 80.527 598.912 77.4332C593.159 74.3139 588.582 69.7628 585.181 63.7798C581.806 57.7713 580.119 50.4205 580.119 41.7273C580.119 32.983 581.806 25.6193 585.181 19.6364C588.582 13.6278 593.159 9.08948 598.912 6.0213C604.69 2.92755 611.159 1.38068 618.318 1.38068C625.426 1.38068 631.869 2.92755 637.647 6.0213C643.426 9.08948 648.015 13.6278 651.416 19.6364C654.816 25.6193 656.517 32.983 656.517 41.7273ZM634.579 41.7273C634.579 37.0227 633.953 33.0597 632.7 29.8381C631.473 26.5909 629.645 24.1364 627.216 22.4744C624.812 20.7869 621.846 19.9432 618.318 19.9432C614.789 19.9432 611.811 20.7869 609.382 22.4744C606.978 24.1364 605.15 26.5909 603.897 29.8381C602.67 33.0597 602.056 37.0227 602.056 41.7273C602.056 46.4318 602.67 50.4077 603.897 53.6548C605.15 56.8764 606.978 59.331 609.382 61.0185C611.811 62.6804 614.789 63.5114 618.318 63.5114C621.846 63.5114 624.812 62.6804 627.216 61.0185C629.645 59.331 631.473 56.8764 632.7 53.6548C633.953 50.4077 634.579 46.4318 634.579 41.7273Z" fill="black"/>
<path d="M283.442 134.126H269.925C269.405 131.238 268.437 128.696 267.022 126.501C265.607 124.306 263.874 122.443 261.823 120.913C259.772 119.382 257.476 118.227 254.935 117.447C252.422 116.667 249.75 116.277 246.92 116.277C241.808 116.277 237.23 117.562 233.186 120.133C229.171 122.703 225.994 126.473 223.655 131.44C221.344 136.408 220.189 142.473 220.189 149.636C220.189 156.857 221.344 162.951 223.655 167.919C225.994 172.887 229.186 176.642 233.229 179.183C237.273 181.725 241.822 182.996 246.876 182.996C249.678 182.996 252.335 182.62 254.848 181.869C257.39 181.089 259.686 179.949 261.737 178.447C263.787 176.945 265.52 175.111 266.935 172.945C268.379 170.75 269.376 168.237 269.925 165.406L283.442 165.45C282.72 169.811 281.319 173.826 279.239 177.494C277.189 181.133 274.546 184.281 271.311 186.938C268.105 189.567 264.437 191.603 260.307 193.047C256.177 194.491 251.671 195.213 246.79 195.213C239.107 195.213 232.262 193.393 226.254 189.754C220.247 186.086 215.51 180.844 212.044 174.028C208.607 167.211 206.888 159.081 206.888 149.636C206.888 140.163 208.621 132.032 212.087 125.245C215.553 118.429 220.29 113.201 226.298 109.562C232.305 105.894 239.136 104.06 246.79 104.06C251.498 104.06 255.888 104.738 259.96 106.096C264.062 107.424 267.744 109.388 271.008 111.988C274.272 114.558 276.972 117.707 279.109 121.433C281.247 125.129 282.691 129.361 283.442 134.126ZM306.36 194H292.15L324.08 105.273H339.546L371.476 194H357.266L332.181 121.389H331.488L306.36 194ZM308.743 159.254H354.839V170.518H308.743V159.254ZM384.289 194V105.273H415.915C422.789 105.273 428.494 106.457 433.028 108.825C437.592 111.194 441 114.472 443.253 118.66C445.506 122.819 446.632 127.628 446.632 133.087C446.632 138.517 445.491 143.297 443.209 147.427C440.956 151.528 437.548 154.72 432.985 157.001C428.45 159.283 422.746 160.424 415.872 160.424H391.914V148.9H414.659C418.991 148.9 422.515 148.279 425.23 147.037C427.974 145.795 429.981 143.99 431.252 141.621C432.523 139.253 433.158 136.408 433.158 133.087C433.158 129.736 432.508 126.834 431.209 124.379C429.938 121.924 427.93 120.046 425.187 118.746C422.472 117.418 418.905 116.754 414.486 116.754H397.676V194H384.289ZM428.089 153.969L450.011 194H434.761L413.273 153.969H428.089ZM491.645 194H462.922V105.273H492.555C501.249 105.273 508.715 107.049 514.954 110.602C521.192 114.125 525.972 119.194 529.294 125.808C532.644 132.393 534.319 140.293 534.319 149.506C534.319 158.749 532.63 166.692 529.251 173.335C525.9 179.978 521.048 185.09 514.694 188.671C508.34 192.224 500.657 194 491.645 194ZM476.309 182.303H490.909C497.667 182.303 503.285 181.032 507.762 178.49C512.239 175.92 515.589 172.208 517.813 167.356C520.037 162.475 521.149 156.525 521.149 149.506C521.149 142.546 520.037 136.639 517.813 131.787C515.618 126.935 512.34 123.252 507.979 120.739C503.617 118.227 498.202 116.97 491.732 116.97H476.309V182.303ZM599.359 128.581C598.897 124.48 596.991 121.303 593.641 119.05C590.29 116.768 586.073 115.627 580.99 115.627C577.351 115.627 574.203 116.205 571.545 117.36C568.888 118.487 566.823 120.046 565.35 122.039C563.906 124.003 563.184 126.241 563.184 128.754C563.184 130.863 563.675 132.682 564.657 134.213C565.668 135.744 566.982 137.029 568.599 138.069C570.246 139.08 572.008 139.932 573.885 140.625C575.762 141.289 577.567 141.838 579.3 142.271L587.965 144.524C590.796 145.217 593.698 146.156 596.673 147.34C599.648 148.524 602.406 150.084 604.948 152.019C607.49 153.954 609.54 156.352 611.1 159.211C612.689 162.07 613.483 165.493 613.483 169.479C613.483 174.504 612.183 178.967 609.584 182.866C607.013 186.765 603.273 189.841 598.363 192.094C593.482 194.347 587.575 195.473 580.643 195.473C574 195.473 568.253 194.419 563.401 192.31C558.548 190.202 554.75 187.213 552.006 183.342C549.263 179.443 547.746 174.822 547.457 169.479H560.888C561.148 172.685 562.188 175.356 564.007 177.494C565.856 179.602 568.21 181.176 571.069 182.216C573.957 183.227 577.12 183.732 580.557 183.732C584.34 183.732 587.705 183.14 590.651 181.956C593.626 180.743 595.966 179.068 597.67 176.93C599.374 174.764 600.226 172.237 600.226 169.349C600.226 166.72 599.475 164.569 597.973 162.893C596.5 161.218 594.493 159.832 591.951 158.734C589.438 157.637 586.593 156.669 583.416 155.832L572.932 152.972C565.827 151.037 560.195 148.192 556.036 144.438C551.905 140.683 549.84 135.715 549.84 129.534C549.84 124.422 551.227 119.96 553.999 116.147C556.772 112.335 560.527 109.374 565.263 107.266C570 105.128 575.344 104.06 581.293 104.06C587.301 104.06 592.601 105.114 597.193 107.222C601.814 109.331 605.454 112.233 608.111 115.93C610.768 119.598 612.154 123.815 612.27 128.581H599.359Z" fill="#F7931A"/>
</g>
<defs>
<clipPath id="clip0_1_2">
<rect width="661" height="196" fill="white"/>
</clipPath>
</defs>
</svg>
