<svg id="Layer_1" data-name="Layer 1" xmlns="http://www.w3.org/2000/svg" viewBox="0 0 704.19 329.03"><defs><style>.cls-1,.cls-4{fill:#f7931a;}.cls-2{fill:#fbf9f8;}.cls-3{font-size:121.05px;font-family:Poppins-Black, Poppins;font-weight:800;}.cls-4{font-size:140.08px;font-family:Poppins-Medium, Poppins;font-weight:500;}</style></defs><path class="cls-1" d="M324,507.09c-5.26-20-8.66-32.81-9-33.41s-1.13-1.82-1.93-2.93A18.94,18.94,0,0,0,296.94,463c-1.42,0-6.28,1.23-33.95,8.44-30.65,8-32.32,8.42-33.9,9.34a18.43,18.43,0,0,0-4.73,3.42c-.31.38-.89,1.07-1.34,1.59-.59.67-12.94,21.32-15,25.19-.26.54-6.74,11.53-14.33,24.42s-14.44,24.52-15.17,25.8-4.61,7.92-8.63,14.73-7.29,12.51-7.26,12.62a6.19,6.19,0,0,1-.52,1.52,7.89,7.89,0,0,0-.61,2.42,6.45,6.45,0,0,1-.19,1.36c-.29.7-.09,4.84.34,6.48a19.37,19.37,0,0,0,6.16,9.52c2.15,1.67,79.42,47,82,48.08a19.37,19.37,0,0,0,11.21.76,20.32,20.32,0,0,0,8.48-5.13c.45-.52,1-1.14,1.28-1.39.49-.49-.26.83,25.4-43,10.82-18.54,20-34.17,20.33-34.7,3.24-5.07,14.4-24.69,15-26.23a19.06,19.06,0,0,0,1.05-6.87C332.48,539.65,332.1,538,324,507.09Zm-27.09.46a13.1,13.1,0,0,1-10.54,2.9,12.59,12.59,0,0,1-10.48-14.61,13.07,13.07,0,0,1,17-9.83C301.77,489.22,304,501.3,296.91,507.55Z" transform="translate(-161.14 -413.7)"/><g id="_1421344023328" data-name=" 1421344023328"><path class="cls-2" d="M249.58,563.53c-4.61-6.55-12.17-5.14-20.44-1.08l-5.43-9.67-6.11,3.67,5.29,9.41c-1.61,1-3.23,2-4.85,3l-5.32-9.48L206.61,563l5.43,9.67c-1.31.82-2.6,1.62-3.86,2.38l0,0-8.43,5.06,3.53,6.28s4.47-2.79,4.44-2.66c2.47-1.48,4.06-.58,5,.47l6.19,11a6.61,6.61,0,0,1,.67-.35l-.65.39,8.67,15.44a2.56,2.56,0,0,1-1.2,3.33c.11,0-4.45,2.66-4.45,2.66l2.74,7.77,8-4.78c1.48-.88,2.95-1.73,4.39-2.58l5.49,9.78,6.11-3.66-5.44-9.68c1.7-1,3.33-1.93,4.91-2.88l5.41,9.63,6.11-3.66-5.48-9.77c10-6.73,15.75-13.54,11.42-23.37-3.48-7.92-9-9.07-15.6-6.92,2.57-3.86,3.07-8.26-.32-13.05Zm3.19,26.05c4.11,7.31-9.35,14.28-13.49,16.76l-7.28-13c4.15-2.48,16.49-11.42,20.77-3.8ZM239.66,573c3.73,6.65-7.54,12.38-11,14.45l-6.6-11.76c3.45-2.07,13.7-9.63,17.59-2.69Z" transform="translate(-161.14 -413.7)"/></g><text class="cls-3" transform="translate(195.05 103.68)">CRYPTO</text><text class="cls-4" transform="translate(199.73 247.5)">CARDS</text></svg>