<svg width="661" height="199" viewBox="0 0 661 199" fill="none" xmlns="http://www.w3.org/2000/svg">
<g clip-path="url(#clip0_1_34)">
<path d="M162.86 45.0694C157.6 24.7633 154.2 11.7572 153.86 11.148C153.52 10.5389 152.73 9.30019 151.93 8.1732C150.088 5.61343 147.652 3.55557 144.838 2.18275C142.024 0.809933 138.919 0.164738 135.8 0.304583C134.38 0.304583 129.52 1.55341 101.85 8.87377C71.2 16.9962 69.53 17.4226 67.95 18.3567C66.2016 19.2517 64.605 20.4239 63.22 21.8291C62.91 22.2149 62.33 22.9155 61.88 23.4434C61.29 24.1237 48.94 45.0897 46.88 49.019C46.62 49.5672 40.14 60.7255 32.55 73.8128C24.96 86.9001 18.11 98.7081 17.38 100.008C16.65 101.307 12.77 108.049 8.74998 114.963C4.72998 121.877 1.45999 127.665 1.48999 127.776C1.38342 128.311 1.20861 128.83 0.969982 129.32C0.639549 130.101 0.43364 130.93 0.359981 131.777C0.345223 132.242 0.281527 132.705 0.169979 133.157C-0.120021 133.868 0.0799751 138.071 0.509975 139.737C1.56771 143.51 3.71299 146.876 6.66998 149.402C8.81998 151.098 86.09 197.122 88.67 198.218C92.2495 199.594 96.1503 199.863 99.88 198.99C103.087 197.991 106 196.202 108.36 193.781C108.81 193.253 109.36 192.624 109.64 192.37C110.13 191.873 109.38 193.213 135.04 148.712C145.86 129.888 155.04 114.019 155.37 113.481C158.61 108.333 169.77 88.4128 170.37 86.8493C171.138 84.6092 171.494 82.2449 171.42 79.8741C171.34 78.1278 170.96 76.4525 162.86 45.0694ZM135.77 45.5365C134.326 46.7689 132.636 47.6701 130.817 48.1782C128.998 48.6864 127.092 48.7897 125.23 48.4809C123.575 48.2214 121.988 47.6294 120.562 46.7395C119.135 45.8497 117.898 44.6799 116.922 43.2986C115.946 41.9173 115.251 40.3523 114.878 38.6951C114.505 37.0379 114.462 35.3218 114.75 33.6472C115.113 31.7967 115.861 30.046 116.943 28.512C118.025 26.978 119.417 25.696 121.026 24.7515C122.635 23.8069 124.423 23.2216 126.273 23.0346C128.122 22.8475 129.989 23.0631 131.75 23.6668C140.63 26.9259 142.86 39.1908 135.77 45.5365Z" fill="#F7931A"/>
<path d="M88.44 102.373C83.83 95.7231 76.27 97.1547 68 101.277L62.57 91.4588L56.46 95.185L61.75 104.739C60.14 105.754 58.52 106.77 56.9 107.785L51.58 98.1598L45.47 101.835L50.9 111.653C49.59 112.486 48.3 113.298 47.04 114.07L38.61 119.207L42.14 125.583C42.14 125.583 46.61 122.75 46.58 122.882C49.05 121.38 50.64 122.294 51.58 123.36L57.77 134.528C57.9865 134.397 58.2102 134.278 58.44 134.173L57.79 134.569L66.46 150.245C66.7273 150.857 66.7518 151.55 66.5282 152.18C66.3047 152.81 65.8504 153.328 65.26 153.626C65.37 153.626 60.81 156.327 60.81 156.327L63.55 164.216L71.55 159.362C73.03 158.469 74.5 157.606 75.94 156.743L81.43 166.673L87.54 162.957L82.1 153.128C83.8 152.113 85.43 151.169 87.01 150.204L92.42 159.982L98.53 156.266L93.05 146.346C103.05 139.513 108.8 132.599 104.47 122.618C100.99 114.577 95.47 113.41 88.87 115.593C91.44 111.674 91.94 107.206 88.55 102.343L88.44 102.373ZM91.63 128.822C95.74 136.244 82.28 143.321 78.14 145.839L70.86 132.64C75.01 130.122 87.35 121.045 91.63 128.781V128.822ZM78.52 111.988C82.25 118.74 70.98 124.558 67.52 126.659L60.92 114.719C64.37 112.618 74.62 104.942 78.51 111.988H78.52Z" fill="white"/>
<path d="M278.392 31.9091H256.761C256.608 30.1193 256.199 28.4957 255.534 27.0384C254.895 25.581 254 24.3281 252.849 23.2798C251.724 22.206 250.357 21.3878 248.746 20.8253C247.135 20.2372 245.307 19.9432 243.261 19.9432C239.682 19.9432 236.652 20.8125 234.172 22.5511C231.717 24.2898 229.851 26.7827 228.572 30.0298C227.32 33.277 226.693 37.1761 226.693 41.7273C226.693 46.5341 227.332 50.5611 228.611 53.8082C229.915 57.0298 231.794 59.4588 234.249 61.0952C236.703 62.706 239.656 63.5114 243.108 63.5114C245.077 63.5114 246.841 63.2685 248.401 62.7827C249.96 62.2713 251.315 61.5426 252.466 60.5966C253.616 59.6506 254.55 58.5128 255.266 57.1832C256.007 55.8281 256.506 54.3068 256.761 52.6193L278.392 52.7727C278.136 56.0966 277.203 59.4844 275.592 62.9361C273.982 66.3622 271.693 69.5327 268.727 72.4474C265.787 75.3366 262.143 77.6634 257.797 79.4276C253.45 81.1918 248.401 82.0739 242.648 82.0739C235.438 82.0739 228.969 80.527 223.241 77.4332C217.54 74.3395 213.027 69.7884 209.703 63.7798C206.405 57.7713 204.756 50.4205 204.756 41.7273C204.756 32.983 206.443 25.6193 209.818 19.6364C213.193 13.6278 217.744 9.08948 223.472 6.0213C229.199 2.92755 235.591 1.38068 242.648 1.38068C247.608 1.38068 252.172 2.05823 256.339 3.41335C260.507 4.76846 264.163 6.75 267.308 9.35795C270.453 11.9403 272.984 15.1236 274.902 18.9077C276.82 22.6918 277.983 27.0256 278.392 31.9091ZM288.066 81V2.45454H321.97C327.799 2.45454 332.9 3.51562 337.272 5.63778C341.645 7.75994 345.045 10.8153 347.474 14.804C349.903 18.7926 351.118 23.5739 351.118 29.1477C351.118 34.7727 349.865 39.5156 347.359 43.3764C344.879 47.2372 341.389 50.152 336.889 52.1207C332.414 54.0895 327.186 55.0739 321.203 55.0739H300.953V38.5057H316.907C319.413 38.5057 321.548 38.1989 323.312 37.5852C325.102 36.946 326.47 35.9361 327.416 34.5554C328.387 33.1747 328.873 31.3722 328.873 29.1477C328.873 26.8977 328.387 25.0696 327.416 23.6634C326.47 22.2315 325.102 21.1832 323.312 20.5185C321.548 19.8281 319.413 19.483 316.907 19.483H309.39V81H288.066ZM334.089 44.9489L353.725 81H330.561L311.385 44.9489H334.089ZM353.294 2.45454H377.072L392.413 34.3636H393.027L408.368 2.45454H432.146L403.305 56.3011V81H382.135V56.3011L353.294 2.45454ZM439.098 81V2.45454H473.001C478.831 2.45454 483.931 3.60511 488.304 5.90625C492.676 8.20738 496.076 11.4418 498.505 15.6094C500.934 19.777 502.149 24.6477 502.149 30.2216C502.149 35.8466 500.896 40.7173 498.39 44.8338C495.91 48.9503 492.42 52.1207 487.92 54.3452C483.446 56.5696 478.217 57.6818 472.234 57.6818H451.984V41.1136H467.939C470.444 41.1136 472.579 40.679 474.343 39.8097C476.133 38.9148 477.501 37.6491 478.447 36.0128C479.419 34.3764 479.904 32.446 479.904 30.2216C479.904 27.9716 479.419 26.054 478.447 24.4688C477.501 22.858 476.133 21.6307 474.343 20.7869C472.579 19.9176 470.444 19.483 467.939 19.483H460.422V81H439.098ZM507.825 19.6364V2.45454H576.092V19.6364H552.467V81H531.45V19.6364H507.825ZM656.517 41.7273C656.517 50.4716 654.816 57.848 651.416 63.8565C648.015 69.8395 643.426 74.3778 637.647 77.4716C631.869 80.5398 625.426 82.0739 618.318 82.0739C611.159 82.0739 604.69 80.527 598.912 77.4332C593.159 74.3139 588.582 69.7628 585.181 63.7798C581.806 57.7713 580.119 50.4205 580.119 41.7273C580.119 32.983 581.806 25.6193 585.181 19.6364C588.582 13.6278 593.159 9.08948 598.912 6.0213C604.69 2.92755 611.159 1.38068 618.318 1.38068C625.426 1.38068 631.869 2.92755 637.647 6.0213C643.426 9.08948 648.015 13.6278 651.416 19.6364C654.816 25.6193 656.517 32.983 656.517 41.7273ZM634.579 41.7273C634.579 37.0227 633.953 33.0597 632.7 29.8381C631.473 26.5909 629.645 24.1364 627.216 22.4744C624.812 20.7869 621.846 19.9432 618.318 19.9432C614.789 19.9432 611.811 20.7869 609.382 22.4744C606.978 24.1364 605.15 26.5909 603.897 29.8381C602.67 33.0597 602.056 37.0227 602.056 41.7273C602.056 46.4318 602.67 50.4077 603.897 53.6548C605.15 56.8764 606.978 59.331 609.382 61.0185C611.811 62.6804 614.789 63.5114 618.318 63.5114C621.846 63.5114 624.812 62.6804 627.216 61.0185C629.645 59.331 631.473 56.8764 632.7 53.6548C633.953 50.4077 634.579 46.4318 634.579 41.7273Z" fill="white"/>
<path d="M283.442 137.764H269.925C269.405 134.876 268.437 132.334 267.022 130.139C265.607 127.944 263.874 126.081 261.823 124.55C259.772 123.02 257.476 121.864 254.935 121.084C252.422 120.305 249.75 119.915 246.92 119.915C241.808 119.915 237.23 121.2 233.186 123.771C229.171 126.341 225.994 130.11 223.655 135.078C221.344 140.046 220.189 146.111 220.189 153.274C220.189 160.495 221.344 166.589 223.655 171.557C225.994 176.525 229.186 180.279 233.229 182.821C237.273 185.363 241.822 186.633 246.876 186.633C249.678 186.633 252.335 186.258 254.848 185.507C257.39 184.727 259.686 183.586 261.737 182.084C263.787 180.583 265.52 178.749 266.935 176.582C268.379 174.387 269.376 171.874 269.925 169.044L283.442 169.087C282.72 173.449 281.319 177.463 279.239 181.131C277.189 184.771 274.546 187.919 271.311 190.576C268.105 193.204 264.437 195.241 260.307 196.685C256.177 198.129 251.671 198.851 246.79 198.851C239.107 198.851 232.262 197.031 226.254 193.392C220.247 189.724 215.51 184.482 212.044 177.665C208.607 170.849 206.888 162.719 206.888 153.274C206.888 143.801 208.621 135.67 212.087 128.883C215.553 122.066 220.29 116.839 226.298 113.2C232.305 109.531 239.136 107.697 246.79 107.697C251.498 107.697 255.888 108.376 259.96 109.734C264.062 111.062 267.744 113.026 271.008 115.626C274.272 118.196 276.972 121.344 279.109 125.07C281.247 128.767 282.691 132.999 283.442 137.764ZM306.36 197.638H292.15L324.08 108.91H339.546L371.476 197.638H357.266L332.181 125.027H331.488L306.36 197.638ZM308.743 162.892H354.839V174.156H308.743V162.892ZM384.289 197.638V108.91H415.915C422.789 108.91 428.494 110.095 433.028 112.463C437.592 114.831 441 118.11 443.253 122.298C445.506 126.457 446.632 131.266 446.632 136.724C446.632 142.154 445.491 146.934 443.209 151.065C440.956 155.166 437.548 158.357 432.985 160.639C428.45 162.921 422.746 164.062 415.872 164.062H391.914V152.538H414.659C418.991 152.538 422.515 151.917 425.23 150.675C427.974 149.433 429.981 147.628 431.252 145.259C432.523 142.891 433.158 140.046 433.158 136.724C433.158 133.374 432.508 130.471 431.209 128.016C429.938 125.561 427.93 123.684 425.187 122.384C422.472 121.056 418.905 120.391 414.486 120.391H397.676V197.638H384.289ZM428.089 157.607L450.011 197.638H434.761L413.273 157.607H428.089ZM491.645 197.638H462.922V108.91H492.555C501.249 108.91 508.715 110.687 514.954 114.239C521.192 117.763 525.972 122.832 529.294 129.446C532.644 136.031 534.319 143.931 534.319 153.144C534.319 162.387 532.63 170.329 529.251 176.972C525.9 183.615 521.048 188.727 514.694 192.309C508.34 195.861 500.657 197.638 491.645 197.638ZM476.309 185.94H490.909C497.667 185.94 503.285 184.669 507.762 182.128C512.239 179.557 515.589 175.846 517.813 170.994C520.037 166.112 521.149 160.163 521.149 153.144C521.149 146.183 520.037 140.277 517.813 135.425C515.618 130.572 512.34 126.89 507.979 124.377C503.617 121.864 498.202 120.608 491.732 120.608H476.309V185.94ZM599.359 132.219C598.897 128.117 596.991 124.94 593.641 122.687C590.29 120.406 586.073 119.265 580.99 119.265C577.351 119.265 574.203 119.843 571.545 120.998C568.888 122.124 566.823 123.684 565.35 125.677C563.906 127.641 563.184 129.879 563.184 132.392C563.184 134.5 563.675 136.32 564.657 137.851C565.668 139.382 566.982 140.667 568.599 141.707C570.246 142.718 572.008 143.57 573.885 144.263C575.762 144.927 577.567 145.476 579.3 145.909L587.965 148.162C590.796 148.855 593.698 149.794 596.673 150.978C599.648 152.162 602.406 153.722 604.948 155.657C607.49 157.592 609.54 159.989 611.1 162.849C612.689 165.708 613.483 169.131 613.483 173.116C613.483 178.142 612.183 182.604 609.584 186.504C607.013 190.403 603.273 193.479 598.363 195.732C593.482 197.984 587.575 199.111 580.643 199.111C574 199.111 568.253 198.057 563.401 195.948C558.548 193.84 554.75 190.85 552.006 186.98C549.263 183.081 547.746 178.46 547.457 173.116H560.888C561.148 176.322 562.188 178.994 564.007 181.131C565.856 183.24 568.21 184.814 571.069 185.854C573.957 186.865 577.12 187.37 580.557 187.37C584.34 187.37 587.705 186.778 590.651 185.594C593.626 184.381 595.966 182.705 597.67 180.568C599.374 178.402 600.226 175.875 600.226 172.986C600.226 170.358 599.475 168.206 597.973 166.531C596.5 164.856 594.493 163.47 591.951 162.372C589.438 161.275 586.593 160.307 583.416 159.469L572.932 156.61C565.827 154.675 560.195 151.83 556.036 148.075C551.905 144.321 549.84 139.353 549.84 133.172C549.84 128.06 551.227 123.597 553.999 119.785C556.772 115.972 560.527 113.012 565.263 110.903C570 108.766 575.344 107.697 581.293 107.697C587.301 107.697 592.601 108.752 597.193 110.86C601.814 112.968 605.454 115.871 608.111 119.568C610.768 123.236 612.154 127.453 612.27 132.219H599.359Z" fill="#F7931A"/>
</g>
<defs>
<clipPath id="clip0_1_34">
<rect width="661" height="199" fill="white"/>
</clipPath>
</defs>
</svg>
